<?xml version="1.0" standalone="no"?>
<!DOCTYPE svg PUBLIC "-//W3C//DTD SVG 20010904//EN"
 "http://www.w3.org/TR/2001/REC-SVG-20010904/DTD/svg10.dtd">
<svg version="1.0" xmlns="http://www.w3.org/2000/svg"
 width="120.000000pt" height="35.000000pt" viewBox="0 0 120.000000 35.000000"
 preserveAspectRatio="xMidYMid meet">

<g transform="translate(0.000000,35.000000) scale(0.100000,-0.100000)"
fill="#000000" stroke="none">
<path d="M739 263 c-4 -12 -11 -45 -15 -73 -4 -27 -9 -50 -13 -50 -3 0 -16 23
-28 50 -12 28 -26 50 -30 50 -5 0 -16 -39 -24 -87 l-14 -88 -130 -5 -130 -6
137 -2 137 -2 11 57 c18 91 20 93 44 41 11 -26 26 -48 33 -48 7 0 15 21 18 47
4 27 10 64 14 83 l7 35 74 6 c91 7 89 11 -9 13 -67 1 -74 0 -82 -21z"/>
<path d="M148 226 c-27 -20 -22 -42 17 -65 23 -14 33 -25 29 -36 -7 -16 -54
-21 -54 -5 0 6 -4 10 -10 10 -17 0 -11 -19 9 -30 13 -7 28 -7 45 0 36 13 35
54 -1 72 -14 7 -28 19 -31 25 -6 19 28 28 50 14 26 -16 34 -8 13 13 -20 19
-44 20 -67 2z"/>
<path d="M257 193 c-4 -27 -9 -58 -13 -70 -4 -14 -2 -23 4 -23 6 0 12 10 14
22 2 18 11 24 36 26 21 2 38 12 49 28 14 23 14 26 -2 44 -11 12 -31 20 -50 20
-31 0 -32 -2 -38 -47z m81 5 c4 -19 -32 -42 -53 -35 -8 4 -11 15 -7 32 4 21 9
26 31 23 15 -2 27 -10 29 -20z"/>
<path d="M396 218 c-19 -87 -22 -118 -15 -118 5 0 11 11 15 25 8 32 31 32 46
0 6 -14 15 -25 20 -25 10 0 10 3 -1 33 -8 19 -6 27 5 31 19 7 18 62 -2 70 -35
13 -64 6 -68 -16z m68 -7 c11 -18 -6 -41 -30 -41 -19 0 -24 5 -24 25 0 20 5
25 24 25 14 0 27 -4 30 -9z"/>
<path d="M526 218 c-3 -13 -9 -44 -14 -70 l-10 -48 47 2 c36 1 39 2 14 5 -27
4 -33 9 -33 29 0 20 5 24 31 24 18 0 28 4 24 10 -4 6 -10 8 -14 6 -13 -9 -34
12 -28 28 4 10 18 16 37 16 16 0 30 5 30 10 0 6 -18 10 -40 10 -33 0 -40 -4
-44 -22z"/>
<path d="M780 230 c0 -5 9 -10 20 -10 16 0 19 -5 16 -22 -13 -65 -16 -98 -8
-98 11 0 22 48 22 91 0 24 4 29 25 29 14 0 25 5 25 10 0 6 -22 10 -50 10 -27
0 -50 -4 -50 -10z"/>
<path d="M910 230 c0 -5 14 -10 30 -10 17 0 30 -3 30 -6 0 -4 -21 -31 -46 -60
l-46 -54 54 2 c36 1 42 3 21 5 -18 2 -33 8 -33 12 0 5 18 29 40 54 22 25 40
50 40 56 0 6 -19 11 -45 11 -25 0 -45 -4 -45 -10z"/>
<path d="M1045 215 c-32 -32 -34 -87 -4 -109 53 -37 113 50 79 115 -15 26 -46
24 -75 -6z m67 -13 c3 -10 0 -34 -6 -53 -9 -27 -16 -34 -36 -34 -21 0 -26 5
-28 32 -2 18 2 41 8 53 14 25 56 27 62 2z"/>
</g>
</svg>
